<?xml version="1.0" encoding="utf-8"?>
<svg width="800" height="800" xmlns="http://www.w3.org/2000/svg">
 <g>
  <title>Layer 1</title>
  <path id="svg_11" d="m104.25589,679.19442c-17.68025,38.03785 -7.79729,81.889 12.70275,98.38896c20.50004,16.49996 46.25006,10.74997 80.00006,10.74997c67.5,0 124.00003,0 191.50003,0c67.5,0 109.00007,0 197.50001,0c44.24997,0 55.25003,5.75 88.62503,-10.99996c33.375,-16.74996 41.44938,-65.9188 13.11846,-108.94565" opacity="undefined" stroke-width="60" stroke="#ffffff" fill="none"/>
  <path id="svg_2" d="m498.06909,49.49144c-67.41654,-22.58026 -111.15574,-19.99911 -157.09519,-11.48044c-45.93945,8.51866 -102.6681,41.99323 -119.37643,56.65989c-33.41666,29.33334 -58.8125,59.90625 -75.96875,96.89063c-17.15625,36.98437 -24.98958,76.65104 -25.90625,105.98437c-0.91667,29.33333 1.20377,59.64323 11.34863,93.45703c10.14486,33.8138 20.88314,52.78255 38.24512,79.48047c17.36198,26.69792 59.53955,66.83594 100.01587,88.13087c40.47632,21.29492 88.00138,31.87174 125.05835,31.94726c9.26425,0.01888 34.65835,0.42683 63.36853,-5.86182c28.71018,-6.28865 53.23643,-14.27392 73.26496,-26.0415c40.05707,-23.53516 63.37327,-42.19954 83.68829,-67.05371c10.15751,-12.42708 27.84954,-37.57658 39.61652,-62.71033c11.76699,-25.13374 17.60893,-50.25174 21.56628,-72.61584c7.91469,-44.72819 9.26799,-81.42082 -11.86657,-140.33749" opacity="undefined" stroke-width="60" stroke="#ffffff" fill-opacity="0" fill="none"/>
  <line fill="none" stroke="#000" stroke-width="8" x1="229.34746" y1="750" x2="229.34746" y2="750" id="svg_8"/>
  <line fill="none" stroke="#ffffff" stroke-width="60" x1="217.84745" y1="704.82091" x2="217.84745" y2="832.82091" id="svg_9"/>
  <line fill="none" stroke="#ffffff" stroke-width="60" x1="577.84745" y1="704.82091" x2="577.84745" y2="833.82091" id="svg_10"/>
  <path stroke="#ffffff" fill="none" stroke-width="50" opacity="undefined" d="m337.63008,410.952c12.83216,65.83349 171.7403,58.42211 175.96053,-3.75001" id="svg_15"/>
  <path transform="rotate(-1 521.328 332.029)" stroke="#ffffff" fill="none" stroke-width="50" opacity="undefined" d="m477.63733,344.45186c6.3724,-38.51572 85.28557,-34.17971 87.38132,2.19393" id="svg_16"/>
  <path transform="rotate(-1 321.309 329.539)" stroke="#ffffff" fill="none" stroke-width="50" opacity="undefined" d="m277.61826,342.29017c6.3724,-39.5331 85.28556,-35.08256 87.38132,2.25189" id="svg_17"/>
  <path fill="none" fill-opacity="0" stroke-width="60" opacity="undefined" d="m541.18,547.8448c30.62953,4.95639 74.92183,34.70094 104.67577,65.73532c14.87697,15.51719 31.11542,35.90302 44.57498,59.37794c13.45957,23.47491 20.80464,46.95988 8.34983,78.21177" id="svg_22" stroke="#ffffff"/>
  <line stroke="#ffffff" id="svg_4" y2="129.11553" x2="683.81176" y1="129.11553" x1="501.86716" fill-opacity="0" stroke-width="50" fill="none"/>
  <line stroke="#ffffff" id="svg_5" y2="214.79641" x2="591.43122" y1="43.11578" x1="590.95448" fill-opacity="0" stroke-width="50" fill="none"/>
  <path stroke="#ffffff" fill="none" fill-opacity="0" stroke-width="60" opacity="undefined" d="m257.0736,546.44619c-29.75995,4.95639 -76.75234,36.09955 -105.66155,67.13393c-14.45461,15.51719 -30.23204,35.90302 -43.30948,59.37794c-13.07745,23.47491 -20.21399,46.95988 -8.11278,78.21177" id="svg_14"/>
 </g>

</svg>